#!OML:ASF H:\ColoradoDance\Project 1\Capture day 1\Session 8\male.ASF
:FULLY-SPECIFIED
:DEGREES
58
upperback -2.836150 -0.692515 -0.118927
rfoot 7.716240 -10.430500
lradius 34.202900
lthumb 5.768270 56.328602
rradius 34.493401
lwrist -9.816510
rhand -32.896400 -1.971450
rhumerus -55.437302 -11.836800 -75.523598
lowerneck -2.951150 6.311360 9.634460
lhand -20.591999 26.427099
ltibia 24.255600
head 3.677350 4.380180 -3.490700
rwrist 6.889610
lfingers 7.125020
rtoes 19.929800
lowerback 0.749940 -0.538446 -1.069920
rfingers 7.125020
lclavicle 0.000000 -0.000000
upperneck 8.187130 8.725950 -7.682970
rfemur -12.536200 -0.160002 9.745990
thorax -3.321450 -0.294018 0.500786
rclavicle 0.000000 -0.000000
rtibia 59.575901
lfoot -12.316000 14.824900
lhumerus -43.159599 2.169980 74.186401
rthumb -6.114180 328.136993
root -28.365900 20.080299 -20.859200 542.791992 19.265900 178.154999
ltoes 5.897010
lfemur -12.399000 -2.922590 -20.455200
59
upperback -2.275430 -1.787070 -0.589952
rfoot -16.067200 -15.740800
lradius 38.692402
lthumb 5.251090 55.962200
rradius 37.633801
lwrist -7.409460
rhand -30.777800 -2.547260
rhumerus -53.694500 -8.745430 -78.992500
lowerneck -4.064760 6.576950 8.710040
lhand -21.127701 26.047300
ltibia 24.542500
head 3.790210 4.472340 -3.452990
rwrist 8.968300
lfingers 7.125020
rtoes -6.468850
lowerback 0.566843 -1.303690 -4.616740
rfingers 7.125020
lclavicle -0.000000 -0.000000
upperneck 7.906300 9.070470 -8.221260
rfemur -27.040899 2.725990 3.492690
thorax -2.536860 -0.777475 2.024540
rclavicle -0.000000 -0.000000
rtibia 45.293999
lfoot -18.780199 13.284900
lhumerus -38.759701 0.064707 75.179604
rthumb -4.068530 327.511993
root -27.935200 19.746201 -23.004999 540.989990 17.862600 174.031998
ltoes 2.162120
lfemur -4.443020 -2.454740 -26.134701
60
upperback -2.593390 -1.646170 -0.217182
rfoot -28.769100 -18.568800
lradius 33.735199
lthumb 6.148590 54.765800
rradius 44.752300
lwrist -9.938970
rhand -29.985901 -1.073180
rhumerus -49.853901 -3.106540 -78.336098
lowerneck -3.059410 4.537640 7.677370
lhand -20.198099 24.875000
ltibia 18.941000
head 2.882990 3.142940 -3.656390
rwrist 8.464360
lfingers 7.125020
rtoes -23.338499
lowerback 0.011219 -1.240310 -3.459170
rfingers 7.125020
lclavicle 0.000000 -0.000000
upperneck 6.260640 6.400000 -8.770330
rfemur -33.578999 24.791700 -8.345760
thorax -2.579180 -0.718860 1.748440
rclavicle 0.000000 -0.000000
rtibia 25.486300
lfoot -20.236099 6.015950
lhumerus -40.926998 0.949456 73.682899
rthumb -3.303830 328.972992
root -26.725100 19.535801 -25.006901 543.171997 8.930400 175.404999
ltoes -6.833340
lfemur 3.333680 -6.426070 -21.094999
61
upperback -3.223220 0.372124 0.124203
rfoot -10.404200 -4.897960
lradius 25.465900
lthumb 4.311240 55.710201
rradius 41.849400
lwrist -12.867000
rhand -34.944199 11.670900
rhumerus -37.670200 6.260330 -82.132500
lowerneck -3.494070 4.724460 8.467500
lhand -22.101000 25.774099
ltibia 14.848800
head 2.489160 2.885910 -5.022550
rwrist 13.261200
lfingers 7.125020
rtoes -3.337850
lowerback 1.480530 0.312157 0.695806
rfingers 7.125020
lclavicle -0.000000 -0.000000
upperneck 4.154890 6.346580 -12.755200
rfemur -30.072001 20.158300 4.105350
thorax -4.143630 0.132995 -0.278374
rclavicle -0.000000 -0.000000
rtibia 30.478800
lfoot -12.259300 5.047120
lhumerus -47.075802 8.232790 62.978199
rthumb -8.090890 341.846008
root -24.405001 19.631901 -27.036800 546.807007 -9.312170 179.917007
ltoes -16.416599
lfemur 3.878340 -19.627199 -6.559570
62
upperback -3.256190 3.531120 -0.977706
rfoot -16.883101 -20.319401
lradius 25.319300
lthumb 5.218610 54.193199
rradius 32.751900
lwrist -9.586940
rhand -32.957401 -0.166698
rhumerus -32.870800 19.082500 -85.570099
lowerneck -2.894730 4.613310 9.421760
lhand -21.161301 24.277399
ltibia 31.051100
head 2.581910 2.960600 -4.844080
rwrist 10.752300
lfingers 7.125020
rtoes 1.608380
lowerback 2.523190 2.582390 3.300660
rfingers 7.125020
lclavicle 0.000000 0.000000
upperneck 4.865780 6.283500 -11.634700
rfemur -20.400299 1.233260 19.689899
thorax -4.519470 1.607480 -3.076320
rclavicle 0.000000 0.000000
rtibia 29.986300
lfoot 2.159560 26.128300
lhumerus -46.091900 7.655960 62.139301
rthumb -6.173090 329.942993
root -21.990900 20.112301 -29.184299 547.018005 -44.125198 181.483994
ltoes 14.675100
lfemur -16.521000 -12.625100 0.591741
63
upperback -3.130580 1.843720 0.260026
rfoot -13.757100 -23.778900
lradius 24.177000
lthumb 2.940670 56.448601
rradius 33.642601
lwrist -13.636100
rhand -31.774000 0.108763
rhumerus -42.166100 1.739510 -76.933899
lowerneck -4.855730 -1.203650 3.919990
lhand -23.520300 26.489100
ltibia 56.077999
head 3.317350 -0.876017 -2.348810
rwrist 14.814600
lfingers 7.125020
rtoes -11.669200
lowerback 1.974500 1.303520 2.992780
rfingers 7.125020
lclavicle -0.000000 -0.000000
upperneck 7.774650 -1.584500 -4.782390
rfemur -15.255700 3.068510 24.614201
thorax -4.250660 0.811199 -1.509210
rclavicle -0.000000 -0.000000
rtibia 28.700600
lfoot 4.315140 14.385900
lhumerus -46.758900 11.299000 63.914600
rthumb -5.030520 330.187988
root -20.357700 20.303801 -30.874701 532.854004 -81.653099 194.044998
ltoes 11.811400
lfemur -27.563101 -3.686500 -11.235600
64
upperback -3.447310 0.033404 0.597673
rfoot -14.830300 -20.693001
lradius 26.225300
lthumb 2.291220 53.591702
rradius 31.149401
lwrist -14.383900
rhand -34.521999 0.686121
rhumerus -46.428501 2.186250 -83.249001
lowerneck -5.207240 -3.863020 0.900879
lhand -24.192699 23.624300
ltibia 60.572800
head 2.254340 -2.597110 -1.033220
rwrist 13.637600
lfingers 7.125020
rtoes 1.250210
lowerback 2.072750 -0.075672 3.258440
rfingers 7.125020
lclavicle -0.000000 0.000000
upperneck 4.582570 -5.111890 -2.211480
rfemur -20.980000 -4.685760 28.009701
thorax -4.723490 -0.103341 -1.208610
rclavicle -0.000000 0.000000
rtibia 28.196400
lfoot 11.795800 0.027057
lhumerus -48.548500 10.574900 69.412201
rthumb -7.683390 330.846008
root -18.779600 20.094999 -31.697399 388.083008 -81.151100 340.187012
ltoes 11.135900
lfemur -19.849100 1.426960 -13.962200
65
upperback -3.809360 -1.212330 0.493958
rfoot -9.793090 -20.390600
lradius 32.273102
lthumb 6.573470 54.364101
rradius 31.735500
lwrist -10.979800
rhand -38.572701 -0.409840
rhumerus -46.746899 -0.582390 -84.024200
lowerneck -6.018900 -3.623060 0.827938
lhand -19.757999 24.486200
ltibia 39.917999
head 2.887130 -2.435130 -0.905498
rwrist 12.443900
lfingers 7.125020
rtoes 4.684170
lowerback 2.092120 -0.923806 0.824810
rfingers 7.125020
lclavicle 0.000000 0.000000
upperneck 5.963200 -4.808140 -1.721590
rfemur -28.400400 -7.285030 28.196100
thorax -5.113830 -0.639397 0.129154
rclavicle 0.000000 0.000000
rtibia 29.796000
lfoot 15.184200 -8.672200
lhumerus -47.007702 2.517260 79.450104
rthumb -11.591600 329.931000
root -16.967400 20.003599 -32.075699 378.937012 -78.045303 349.554993
ltoes 8.988140
lfemur -0.004123 -0.925994 -14.919600
66
upperback -3.483260 -2.843270 -0.330870
rfoot -1.311460 -24.794500
lradius 42.072498
lthumb 4.045980 55.381599
rradius 30.994499
lwrist -7.548770
rhand -32.361301 3.201450
rhumerus -50.635399 -5.281400 -76.033798
lowerneck -6.846740 -3.153830 2.166050
lhand -22.375700 25.440300
ltibia 13.963400
head 3.252650 -2.160120 -1.477660
rwrist 12.163900
lfingers 7.125020
rtoes 7.870150
lowerback 1.478770 -2.067450 -0.860095
rfingers 7.125020
lclavicle 0.000000 0.000000
upperneck 6.678900 -4.237640 -2.721750
rfemur -38.503101 -2.844530 22.812000
thorax -4.392700 -1.406190 0.290404
rclavicle 0.000000 0.000000
rtibia 31.857800
lfoot -9.051140 -6.116380
lhumerus -40.178902 -4.656930 81.102898
rthumb -5.597580 333.295013
root -14.183600 19.564400 -32.108101 368.428009 -77.085098 360.115997
ltoes -15.471500
lfemur 10.728100 -9.366710 -21.508400
